<mxfile host="65bd71144e">
    <diagram id="GC4S91WVJdEGyDAQGroD" name="ページ1">
        <mxGraphModel dx="1883" dy="1375" grid="1" gridSize="10" guides="1" tooltips="1" connect="1" arrows="1" fold="1" page="1" pageScale="1" pageWidth="1654" pageHeight="1169" math="0" shadow="0">
            <root>
                <mxCell id="0"/>
                <mxCell id="1" parent="0"/>
                <mxCell id="28" value="" style="shape=singleArrow;direction=north;whiteSpace=wrap;html=1;fontSize=39;rotation=-35;dashed=1;dashPattern=12 12;" vertex="1" parent="1">
                    <mxGeometry x="170" y="448.53" width="60" height="310" as="geometry"/>
                </mxCell>
                <mxCell id="27" value="" style="shape=singleArrow;direction=north;whiteSpace=wrap;html=1;fontSize=39;rotation=-35;" vertex="1" parent="1">
                    <mxGeometry x="230" y="410.54" width="60" height="287.99" as="geometry"/>
                </mxCell>
                <mxCell id="2" value="" style="shape=actor;whiteSpace=wrap;html=1;" vertex="1" parent="1">
                    <mxGeometry x="50" y="200" width="150" height="190" as="geometry"/>
                </mxCell>
                <mxCell id="30" value="" style="shape=singleArrow;whiteSpace=wrap;html=1;dashed=1;dashPattern=12 12;fontSize=39;" vertex="1" parent="1">
                    <mxGeometry x="1300" y="65" width="100" height="50" as="geometry"/>
                </mxCell>
                <mxCell id="31" value="表示命令の流れ" style="text;html=1;align=center;verticalAlign=middle;resizable=0;points=[];autosize=1;strokeColor=none;fillColor=none;fontSize=25;" vertex="1" parent="1">
                    <mxGeometry x="1400" y="70" width="200" height="40" as="geometry"/>
                </mxCell>
                <mxCell id="32" value="" style="shape=singleArrow;whiteSpace=wrap;html=1;fontSize=39;" vertex="1" parent="1">
                    <mxGeometry x="1300" y="10" width="100" height="50" as="geometry"/>
                </mxCell>
                <mxCell id="33" value="処理命令の流れ" style="text;html=1;align=center;verticalAlign=middle;resizable=0;points=[];autosize=1;strokeColor=none;fillColor=none;fontSize=25;" vertex="1" parent="1">
                    <mxGeometry x="1400" y="15" width="200" height="40" as="geometry"/>
                </mxCell>
                <mxCell id="51" value="表示処理" style="text;html=1;align=center;verticalAlign=middle;resizable=0;points=[];autosize=1;strokeColor=none;fillColor=none;fontSize=20;" vertex="1" parent="1">
                    <mxGeometry x="410" y="820" width="100" height="40" as="geometry"/>
                </mxCell>
                <mxCell id="54" value="ユーザー" style="text;html=1;align=center;verticalAlign=middle;resizable=0;points=[];autosize=1;strokeColor=none;fillColor=none;fontSize=20;" vertex="1" parent="1">
                    <mxGeometry x="75" y="150" width="100" height="40" as="geometry"/>
                </mxCell>
                <mxCell id="3" value="" style="swimlane;startSize=0;dashed=1;" vertex="1" parent="1">
                    <mxGeometry x="240" y="120" width="1360" height="920" as="geometry"/>
                </mxCell>
                <mxCell id="61" value="" style="rounded=1;whiteSpace=wrap;html=1;fontSize=20;" vertex="1" parent="3">
                    <mxGeometry x="-60" y="450" width="120" height="60" as="geometry"/>
                </mxCell>
                <mxCell id="4" value="" style="ellipse;whiteSpace=wrap;html=1;aspect=fixed;" vertex="1" parent="3">
                    <mxGeometry x="510" y="20" width="340" height="340" as="geometry"/>
                </mxCell>
                <mxCell id="5" value="" style="ellipse;whiteSpace=wrap;html=1;aspect=fixed;" vertex="1" parent="3">
                    <mxGeometry x="40" y="540" width="340" height="340" as="geometry"/>
                </mxCell>
                <mxCell id="9" value="" style="ellipse;whiteSpace=wrap;html=1;aspect=fixed;" vertex="1" parent="3">
                    <mxGeometry x="980" y="540" width="340" height="340" as="geometry"/>
                </mxCell>
                <mxCell id="10" value="Controller" style="text;html=1;align=center;verticalAlign=middle;resizable=0;points=[];autosize=1;strokeColor=none;fillColor=none;fontSize=25;" vertex="1" parent="3">
                    <mxGeometry x="615" y="40" width="130" height="40" as="geometry"/>
                </mxCell>
                <mxCell id="12" value="View" style="text;html=1;align=center;verticalAlign=middle;resizable=0;points=[];autosize=1;strokeColor=none;fillColor=none;fontSize=25;" vertex="1" parent="3">
                    <mxGeometry x="170" y="830" width="80" height="40" as="geometry"/>
                </mxCell>
                <mxCell id="11" value="Model" style="text;html=1;align=center;verticalAlign=middle;resizable=0;points=[];autosize=1;strokeColor=none;fillColor=none;fontSize=25;" vertex="1" parent="3">
                    <mxGeometry x="1105" y="830" width="90" height="40" as="geometry"/>
                </mxCell>
                <mxCell id="15" value="" style="shape=singleArrow;whiteSpace=wrap;html=1;fontSize=39;" vertex="1" parent="3">
                    <mxGeometry x="-20" y="110" width="500" height="60" as="geometry"/>
                </mxCell>
                <mxCell id="16" value="" style="shape=singleArrow;whiteSpace=wrap;html=1;fontSize=39;dashed=1;dashPattern=12 12;" vertex="1" parent="3">
                    <mxGeometry x="-20" y="180" width="500" height="60" as="geometry"/>
                </mxCell>
                <mxCell id="18" value="" style="shape=singleArrow;whiteSpace=wrap;html=1;fontSize=39;dashed=1;dashPattern=12 12;" vertex="1" parent="3">
                    <mxGeometry x="385" y="620" width="590" height="60" as="geometry"/>
                </mxCell>
                <mxCell id="19" value="" style="shape=singleArrow;whiteSpace=wrap;html=1;fontSize=39;dashed=1;dashPattern=12 12;direction=west;" vertex="1" parent="3">
                    <mxGeometry x="380" y="720" width="590" height="60" as="geometry"/>
                </mxCell>
                <mxCell id="20" value="" style="shape=singleArrow;whiteSpace=wrap;html=1;fontSize=39;direction=west;" vertex="1" parent="3">
                    <mxGeometry x="380" y="790" width="590" height="60" as="geometry"/>
                </mxCell>
                <mxCell id="23" value="" style="shape=singleArrow;direction=south;whiteSpace=wrap;html=1;dashed=1;dashPattern=12 12;fontSize=39;rotation=45;" vertex="1" parent="3">
                    <mxGeometry x="380" y="280" width="60" height="250" as="geometry"/>
                </mxCell>
                <mxCell id="24" value="" style="shape=singleArrow;direction=north;whiteSpace=wrap;html=1;dashed=1;dashPattern=12 12;fontSize=39;rotation=45;" vertex="1" parent="3">
                    <mxGeometry x="430" y="335" width="60" height="250" as="geometry"/>
                </mxCell>
                <mxCell id="25" value="" style="shape=singleArrow;direction=north;whiteSpace=wrap;html=1;fontSize=39;rotation=-45;" vertex="1" parent="3">
                    <mxGeometry x="900" y="310" width="60" height="250" as="geometry"/>
                </mxCell>
                <mxCell id="26" value="" style="shape=singleArrow;direction=south;whiteSpace=wrap;html=1;fontSize=39;rotation=-45;" vertex="1" parent="3">
                    <mxGeometry x="960" y="250" width="60" height="250" as="geometry"/>
                </mxCell>
                <mxCell id="34" value="" style="shape=cylinder3;whiteSpace=wrap;html=1;boundedLbl=1;backgroundOutline=1;size=15;fontSize=25;" vertex="1" parent="3">
                    <mxGeometry x="1020" y="730" width="100" height="90" as="geometry"/>
                </mxCell>
                <mxCell id="35" value="" style="shape=cylinder3;whiteSpace=wrap;html=1;boundedLbl=1;backgroundOutline=1;size=15;fontSize=25;" vertex="1" parent="3">
                    <mxGeometry x="1180" y="730" width="100" height="90" as="geometry"/>
                </mxCell>
                <mxCell id="39" style="edgeStyle=none;html=1;exitX=0.25;exitY=1;exitDx=0;exitDy=0;entryX=0.855;entryY=0;entryDx=0;entryDy=4.35;entryPerimeter=0;fontSize=25;" edge="1" parent="3" source="36" target="34">
                    <mxGeometry relative="1" as="geometry"/>
                </mxCell>
                <mxCell id="40" style="edgeStyle=none;html=1;exitX=0.75;exitY=1;exitDx=0;exitDy=0;entryX=0.5;entryY=0;entryDx=0;entryDy=0;entryPerimeter=0;fontSize=25;" edge="1" parent="3" source="36" target="35">
                    <mxGeometry relative="1" as="geometry"/>
                </mxCell>
                <mxCell id="36" value="" style="whiteSpace=wrap;html=1;aspect=fixed;fontSize=25;" vertex="1" parent="3">
                    <mxGeometry x="1050" y="600" width="80" height="80" as="geometry"/>
                </mxCell>
                <mxCell id="41" style="edgeStyle=none;html=1;exitX=0.5;exitY=1;exitDx=0;exitDy=0;entryX=0.5;entryY=0;entryDx=0;entryDy=0;entryPerimeter=0;fontSize=25;" edge="1" parent="3" source="37" target="34">
                    <mxGeometry relative="1" as="geometry"/>
                </mxCell>
                <mxCell id="42" style="edgeStyle=none;html=1;exitX=0.75;exitY=1;exitDx=0;exitDy=0;entryX=0.145;entryY=0;entryDx=0;entryDy=4.35;entryPerimeter=0;fontSize=25;" edge="1" parent="3" source="37" target="35">
                    <mxGeometry relative="1" as="geometry"/>
                </mxCell>
                <mxCell id="37" value="" style="whiteSpace=wrap;html=1;aspect=fixed;fontSize=25;" vertex="1" parent="3">
                    <mxGeometry x="1170" y="600" width="80" height="80" as="geometry"/>
                </mxCell>
                <mxCell id="43" value="処理1" style="text;html=1;align=center;verticalAlign=middle;resizable=0;points=[];autosize=1;strokeColor=none;fillColor=none;fontSize=20;" vertex="1" parent="3">
                    <mxGeometry x="1055" y="620" width="70" height="40" as="geometry"/>
                </mxCell>
                <mxCell id="44" value="処理2" style="text;html=1;align=center;verticalAlign=middle;resizable=0;points=[];autosize=1;strokeColor=none;fillColor=none;fontSize=20;" vertex="1" parent="3">
                    <mxGeometry x="1175" y="620" width="70" height="40" as="geometry"/>
                </mxCell>
                <mxCell id="45" value="データ1" style="text;html=1;align=center;verticalAlign=middle;resizable=0;points=[];autosize=1;strokeColor=none;fillColor=none;fontSize=20;" vertex="1" parent="3">
                    <mxGeometry x="1025" y="770" width="90" height="40" as="geometry"/>
                </mxCell>
                <mxCell id="46" value="データ2" style="text;html=1;align=center;verticalAlign=middle;resizable=0;points=[];autosize=1;strokeColor=none;fillColor=none;fontSize=20;" vertex="1" parent="3">
                    <mxGeometry x="1185" y="770" width="90" height="40" as="geometry"/>
                </mxCell>
                <mxCell id="47" value="" style="whiteSpace=wrap;html=1;aspect=fixed;fontSize=20;" vertex="1" parent="3">
                    <mxGeometry x="150" y="650" width="120" height="120" as="geometry"/>
                </mxCell>
                <mxCell id="48" value="" style="whiteSpace=wrap;html=1;aspect=fixed;fontSize=20;" vertex="1" parent="3">
                    <mxGeometry x="620" y="130" width="120" height="120" as="geometry"/>
                </mxCell>
                <mxCell id="49" value="表示処理" style="text;html=1;align=center;verticalAlign=middle;resizable=0;points=[];autosize=1;strokeColor=none;fillColor=none;fontSize=20;" vertex="1" parent="3">
                    <mxGeometry x="160" y="690" width="100" height="40" as="geometry"/>
                </mxCell>
                <mxCell id="50" value="命令処理" style="text;html=1;align=center;verticalAlign=middle;resizable=0;points=[];autosize=1;strokeColor=none;fillColor=none;fontSize=20;" vertex="1" parent="3">
                    <mxGeometry x="630" y="170" width="100" height="40" as="geometry"/>
                </mxCell>
                <mxCell id="53" value="処理命令" style="text;html=1;align=center;verticalAlign=middle;resizable=0;points=[];autosize=1;strokeColor=none;fillColor=none;fontSize=20;" vertex="1" parent="3">
                    <mxGeometry x="1000" y="320" width="100" height="40" as="geometry"/>
                </mxCell>
                <mxCell id="52" value="完了応答" style="text;html=1;align=center;verticalAlign=middle;resizable=0;points=[];autosize=1;strokeColor=none;fillColor=none;fontSize=20;" vertex="1" parent="3">
                    <mxGeometry x="810" y="440" width="100" height="40" as="geometry"/>
                </mxCell>
                <mxCell id="55" value="完了応答" style="text;html=1;align=center;verticalAlign=middle;resizable=0;points=[];autosize=1;strokeColor=none;fillColor=none;fontSize=20;" vertex="1" parent="3">
                    <mxGeometry x="490" y="440" width="100" height="40" as="geometry"/>
                </mxCell>
                <mxCell id="56" value="表示命令" style="text;html=1;align=center;verticalAlign=middle;resizable=0;points=[];autosize=1;strokeColor=none;fillColor=none;fontSize=20;" vertex="1" parent="3">
                    <mxGeometry x="300" y="340" width="100" height="40" as="geometry"/>
                </mxCell>
                <mxCell id="59" value="画面表示" style="text;html=1;align=center;verticalAlign=middle;resizable=0;points=[];autosize=1;strokeColor=none;fillColor=none;fontSize=20;" vertex="1" parent="3">
                    <mxGeometry x="-50" y="460" width="100" height="40" as="geometry"/>
                </mxCell>
                <mxCell id="62" value="" style="rounded=1;whiteSpace=wrap;html=1;fontSize=20;" vertex="1" parent="3">
                    <mxGeometry x="150" y="145" width="120" height="60" as="geometry"/>
                </mxCell>
                <mxCell id="57" value="処理命令" style="text;html=1;align=center;verticalAlign=middle;resizable=0;points=[];autosize=1;strokeColor=none;fillColor=none;fontSize=20;" vertex="1" parent="3">
                    <mxGeometry x="160" y="155" width="100" height="40" as="geometry"/>
                </mxCell>
                <mxCell id="63" value="" style="rounded=1;whiteSpace=wrap;html=1;fontSize=20;" vertex="1" parent="3">
                    <mxGeometry x="615" y="750" width="130" height="70" as="geometry"/>
                </mxCell>
                <mxCell id="64" value="表示データ" style="text;html=1;align=center;verticalAlign=middle;resizable=0;points=[];autosize=1;strokeColor=none;fillColor=none;fontSize=20;" vertex="1" parent="3">
                    <mxGeometry x="620" y="765" width="120" height="40" as="geometry"/>
                </mxCell>
                <mxCell id="65" value="データ要求" style="text;html=1;align=center;verticalAlign=middle;resizable=0;points=[];autosize=1;strokeColor=none;fillColor=none;fontSize=20;" vertex="1" parent="3">
                    <mxGeometry x="620" y="590" width="120" height="40" as="geometry"/>
                </mxCell>
                <mxCell id="66" value="アプリケーション" style="text;html=1;align=center;verticalAlign=middle;resizable=0;points=[];autosize=1;strokeColor=none;fillColor=none;fontSize=20;" vertex="1" parent="3">
                    <mxGeometry x="590" y="880" width="180" height="40" as="geometry"/>
                </mxCell>
            </root>
        </mxGraphModel>
    </diagram>
</mxfile>